<svg height="64" viewBox="0 0 64 64" width="64" xmlns="http://www.w3.org/2000/svg"><g fill="none" fill-rule="evenodd"><path d="m2 13h60v34h-60z" fill="#ed9111"/><path d="m2 11c0-1.1045695.89473039-2 1.99630737-2h56.00738523c1.1025301 0 1.9963074.88772964 1.9963074 2v2h-60z" fill="#595959"/><path d="m2 49.0048815c0-1.1072655.89473039-2.0048815 1.99630737-2.0048815h56.00738523c1.1025301 0 1.9963074.8938998 1.9963074 2.0048815v2.9951185h-60z" fill="#595959" transform="matrix(1 0 0 -1 0 99)"/><path d="m22 52h20v3h-20z" fill="#979797"/><path d="m16 56h31" stroke="#595959" stroke-linecap="square" stroke-width="2"/><path d="m39 31.0074612c0-1.1086902.8982124-2.0074612 1.9907951-2.0074612h16.0184098c1.0994858 0 1.9907951.9003455 1.9907951 2.0074612v22.9863707c0 5.526254-4.4759382 10.0061681-10 10.0061681-5.5228475 0-10-4.4683247-10-10.0061681z" fill="#d8d8d8"/><g fill="#979797"><path d="m42 32h3v3h-3z"/><path d="m47 32h4v3h-4z"/><path d="m53 32h3v3h-3z"/><path d="m42 37h3v3h-3z"/><path d="m47 37h4v3h-4z"/><path d="m53 37h3v3h-3z"/><path d="m42 42h3v3h-3z"/><path d="m47 42h4v3h-4z"/><path d="m53 42h3v3h-3z"/></g><circle cx="49" cy="54" fill="#595959" r="5"/><path d="m49 50v1m4 3h-1m-3 4v-1m-4-3h1" stroke="#979797" stroke-linecap="round" stroke-linejoin="round" stroke-width="2"/></g></svg>